<?xml version="1.0" encoding="utf-8"?>
<svg xmlns="http://www.w3.org/2000/svg">
    <defs>
        <symbol id="close" viewBox="0 0 17.828 17.828">
            <polygon points="2.828 17.828 8.914 11.742 15 17.828 17.828 15 11.742 8.914 17.828 2.828 15 0 8.914 6.086 2.828 0 0 2.828 6.085 8.914 0 15 2.828 17.828"/>
        </symbol>
        <symbol id="copy" viewBox="0 0 24 24">
            <path d="M21,10V20a1,1,0,0,1-1,1H10a1,1,0,0,1-1-1V10a1,1,0,0,1,1-1H20A1,1,0,0,1,21,10ZM6,14H5V5h9V6a1,1,0,0,0,2,0V4a1,1,0,0,0-1-1H4A1,1,0,0,0,3,4V15a1,1,0,0,0,1,1H6a1,1,0,0,0,0-2Z"/>
        </symbol>
        <symbol id="star" viewBox="0 0 24 24">
            <path d="M21.5,9.757l-5.278,4.354L17.871,21.5,12,17.278,6.129,21.5l1.649-7.389L2.5,9.757l6.333-.924L12,2.5l3.167,6.333Z"/>
        </symbol>
        <symbol id="exchange" viewBox="0 0 24 24">
            <g id="Transfer_data">
                <path d="M3.294,8.708l3,3a1,1,0,1,0,1.414-1.414L6.414,9H20a1,1,0,0,0,0-2H6.414L7.707,5.707A1,1,0,0,0,6.293,4.293l-3,3A1,1,0,0,0,3.294,8.708Z" style="fill:#1c1b1e"/>
                <path d="M20.706,15.292l-3-3a1,1,0,0,0-1.414,1.414L17.586,15H4a1,1,0,0,0,0,2H17.586l-1.293,1.293a1,1,0,0,0,1.414,1.414l3-3A1,1,0,0,0,20.706,15.292Z" style="fill:#1c1b1e"/>
            </g>
        </symbol>
        <symbol id="arrow" viewBox="0 0 24 24">
            <path d="M11.178 19.569a.998.998 0 0 0 1.644 0l9-13A.999.999 0 0 0 21 5H3a1.002 1.002 0 0 0-.822 1.569l9 13z"/>
        </symbol>
    </defs>
</svg>
